HIERARCHY
ROOT hip
{
	OFFSET 0.000000 0.000000 0.000000 
	CHANNELS 6 Xposition Yposition Zposition Xrotation Zrotation Yrotation
	JOINT abdomen
	{
		OFFSET 0.000000 3.402643 0.000000 
		CHANNELS 3 Xrotation Zrotation Yrotation
		JOINT chest
		{
			OFFSET 0.000000 8.438565 -0.680529 
			CHANNELS 3 Xrotation Zrotation Yrotation
			JOINT neck
			{
				OFFSET 0.000000 10.207942 -0.272212 
				CHANNELS 3 Xrotation Zrotation Yrotation
				JOINT head
				{
					OFFSET 0.000000 3.130431 0.000000 
					CHANNELS 3 Xrotation Zrotation Yrotation
					End Site
					{
						OFFSET 0.000000 3.130435 0.000000 
					}
				}
			}
			JOINT lCollar
			{
				OFFSET 3.470700 6.669187 -0.816635 
				CHANNELS 3 Yrotation Zrotation Xrotation
				JOINT lShldr
				{
					OFFSET 3.198488 0.000000 0.000000 
					CHANNELS 3 Zrotation Yrotation Xrotation
					JOINT lForeArm
					{
						OFFSET 10.139888 0.000000 0.000000 
						CHANNELS 3 Yrotation Zrotation Xrotation
						JOINT lHand
						{
							OFFSET 8.370511 0.000000 0.000000 
							CHANNELS 3 Zrotation Yrotation Xrotation
							End Site
							{
								OFFSET 4.083176 0.000000 0.000000 
							}
						}
					}
				}
			}
			JOINT rCollar
			{
				OFFSET -3.470700 6.669187 -0.816635 
				CHANNELS 3 Yrotation Zrotation Xrotation
				JOINT rShldr
				{
					OFFSET -3.198488 0.000000 0.000000 
					CHANNELS 3 Zrotation Yrotation Xrotation
					JOINT rForeArm
					{
						OFFSET -10.139888 0.000000 0.000000 
						CHANNELS 3 Yrotation Zrotation Xrotation
						JOINT rHand
						{
							OFFSET -8.370511 0.000000 0.000000 
							CHANNELS 3 Zrotation Yrotation Xrotation
							End Site
							{
								OFFSET -4.083176 0.000000 0.000000 
							}
						}
					}
				}
			}
		}
	}
	JOINT lThigh
	{
		OFFSET 5.308129 -1.633274 1.361059 
		CHANNELS 3 Xrotation Zrotation Yrotation
		JOINT lShin
		{
			OFFSET -2.041588 -20.007561 0.000000 
			CHANNELS 3 Xrotation Zrotation Yrotation
			JOINT lFoot
			{
				OFFSET 0.000000 -19.190928 -1.224953 
				CHANNELS 3 Xrotation Yrotation Zrotation
				End Site
				{
					OFFSET 0.000000 -2.449906 4.627600 
				}
			}
		}
	}
	JOINT rThigh
	{
		OFFSET -5.308129 -1.633274 1.361059 
		CHANNELS 3 Xrotation Zrotation Yrotation
		JOINT rShin
		{
			OFFSET 2.041588 -20.007561 0.000000 
			CHANNELS 3 Xrotation Zrotation Yrotation
			JOINT rFoot
			{
				OFFSET 0.000000 -19.190928 -1.224953 
				CHANNELS 3 Xrotation Yrotation Zrotation
				End Site
				{
					OFFSET 0.000000 -2.449906 4.627600 
				}
			}
		}
	}
}
MOTION
Frames: 15
Frame Time: 0.033333
-2.572801 34.716377 -2.572801 2.282019 -1.887751 14.871434 5.175781 0.000000 -0.205078 12.070631 -11.507599 31.974127 -8.544920 -0.009766 -0.009767 11.707843 4.393787 -39.582348 1.992188 -2.001953 0.000341 -24.024067 36.120403 6.314960 -25.009077 -0.755219 8.378395 -6.070344 -0.608964 -36.889065 -2.001953 1.992188 0.000000 56.402611 10.234983 -8.606209 51.525551 0.541158 8.567233 35.591858 -5.311046 -38.723167 -46.579170 8.973212 17.878384 27.143171 -1.324156 -2.286186 19.694220 -19.459764 8.297134 5.405464 -1.931796 -22.306807 36.634464 0.860052 2.761575 -39.203182 -48.399738 5.192336 
-2.239499 34.749943 -2.239499 2.836978 -1.599887 14.214507 4.902277 0.009765 -0.390625 12.288412 -10.831610 30.100521 -8.544920 -0.009766 -0.009767 10.555878 3.647191 -38.069294 1.992188 -2.001953 0.000341 -26.067131 35.894135 5.370094 -22.701681 -0.768676 8.364772 -4.815057 1.615203 -42.575493 -2.001953 1.992188 0.000000 56.891090 9.868916 -6.840277 51.085838 0.548698 8.562666 34.859875 -5.791160 -38.146446 -46.949127 8.728279 17.862284 27.670712 -1.300290 -2.337350 18.981422 -18.792910 8.025074 5.188931 -2.799406 -21.759220 36.477924 0.860093 2.763514 -38.667942 -48.369904 5.848694 
-1.832424 34.808117 -1.832424 3.454264 -1.219107 12.766552 4.706815 0.019530 -0.634766 12.894822 -10.143414 27.814217 -8.544920 -0.009766 -0.009767 9.345505 3.031382 -35.477032 1.992188 -2.001953 0.000341 -30.481438 38.168068 4.050697 -27.041346 -0.737400 8.393132 -4.290499 3.775645 -48.628075 -2.001953 1.992188 0.000000 57.513077 9.324910 -4.691858 51.554565 0.551714 8.566231 33.871944 -6.465264 -36.671478 -47.484085 8.834446 17.766069 28.589836 -1.271114 -2.387869 17.860464 -17.528503 7.366592 4.734549 -4.139641 -21.012484 36.566208 0.856112 2.756961 -37.880104 -47.752785 6.884725 
-1.425300 34.866276 -1.425300 4.063817 -0.823537 11.309653 4.511269 0.029293 -0.878906 13.465405 -9.430930 25.525257 -8.544920 -0.009766 -0.009767 8.096845 2.477527 -32.876034 1.992188 -2.001953 0.000341 -35.114964 40.347321 2.463884 -31.386570 -0.706906 8.425630 -3.984614 5.983931 -54.676323 -2.001953 1.992188 0.000000 58.113674 8.748529 -2.565203 52.033047 0.554862 8.579122 32.856426 -7.128648 -35.177345 -48.029682 8.941161 17.659048 29.489618 -1.232010 -2.434613 16.791208 -16.247532 6.750429 4.255461 -5.486811 -20.275818 36.653706 0.855969 2.770977 -37.151665 -47.101440 7.881799 
-0.935465 34.902065 -0.935465 4.686001 -0.308421 9.267705 4.354478 0.048818 -1.162109 14.333594 -8.715849 22.965286 -8.544920 -0.009766 -0.009767 6.798677 2.109730 -29.425909 1.992188 -2.001953 0.000341 -41.331169 40.021324 0.554137 -33.989162 -0.684159 8.439243 -4.293045 8.294523 -61.080860 -2.001953 1.992188 0.000000 58.641636 7.999840 -0.174181 53.185966 0.536573 8.588008 31.599842 -7.894198 -33.028954 -48.583652 9.277431 17.496429 30.573952 -1.205974 -2.503483 15.560373 -14.518115 5.881099 3.523342 -7.107368 -19.378571 36.947250 0.836370 2.769735 -36.228313 -46.027782 9.123755 
-0.445650 34.937851 -0.445650 5.283429 0.232508 7.236426 4.207506 0.058575 -1.445312 15.165200 -7.960601 20.410275 -8.544920 -0.009766 -0.009767 5.482093 1.817490 -25.970875 1.992188 -2.001953 0.000341 -47.504112 39.522381 -1.289182 -36.593578 -0.672509 8.459959 -4.864577 10.553776 -67.544304 -2.001953 1.992188 0.000000 59.138412 7.231321 2.202525 54.338596 0.527236 8.586523 30.319733 -8.624835 -30.868500 -49.130154 9.609279 17.310535 31.639557 -1.149475 -2.563039 14.355466 -12.774837 5.046914 2.751231 -8.726611 -18.459700 37.239887 0.826607 2.790895 -35.369686 -44.934357 10.287571 
0.017344 34.973633 0.017344 5.850660 0.817371 4.854135 4.099477 0.068328 -1.748046 16.175396 -7.166915 17.710485 -8.544920 -0.009766 -0.009767 4.206588 1.730656 -21.904972 1.992188 -2.001953 0.000341 -53.153332 34.784851 -2.898620 -34.158215 -0.686216 8.447054 -6.003215 13.128973 -74.377251 -2.001953 1.992188 0.000000 59.461067 6.331331 4.714956 55.910862 0.527399 8.608374 28.831425 -9.399288 -28.279856 -49.643848 10.056372 17.114483 32.655540 -1.110708 -2.624083 13.170197 -10.747023 4.118687 1.686071 -10.519259 -17.466019 37.659573 0.807130 2.815216 -34.425217 -43.497982 11.548472 
0.480356 35.009422 0.480356 6.399367 1.424456 2.471638 4.001124 0.078075 -2.041014 17.157427 -6.311689 15.024753 -8.544920 -0.009766 -0.009767 2.920160 1.729116 -17.840139 1.992188 -2.001953 0.000341 -58.347839 29.947430 -3.890786 -31.715464 -0.697154 8.429824 -7.476241 15.543236 -81.344658 -2.001953 1.992188 0.000000 59.735298 5.417286 7.225075 57.483322 0.516239 8.629173 27.298561 -10.108160 -25.645111 -50.167694 10.503392 16.903803 33.671707 -1.071936 -2.674924 12.007677 -8.697922 3.241805 0.575096 -12.303292 -16.415951 38.089264 0.793493 2.832105 -33.531216 -42.029125 12.783463 
0.976898 35.049675 0.976898 6.891720 2.060545 -0.078074 3.922187 0.087817 -2.343747 18.220041 -5.439360 12.302104 -8.544920 -0.009766 -0.009767 1.742187 1.871599 -13.385988 1.992188 -2.001953 0.000341 -61.459682 20.576614 -4.786742 -21.937757 -0.785784 8.364724 -9.536712 18.422701 -88.710670 -2.001953 1.992188 0.000000 59.733768 4.437944 9.762377 59.241161 0.507642 8.642009 25.615694 -10.769287 -22.811817 -50.567314 10.971307 16.666946 34.531303 -1.027416 -2.725539 10.973326 -6.500663 2.335151 -0.811856 -14.095963 -15.363880 38.547684 0.768037 2.865889 -32.601040 -40.356617 13.991765 
1.473418 35.089924 1.473418 7.355497 2.721744 -2.629553 3.843147 0.097552 -2.646480 19.237719 -4.516331 9.590561 -8.544920 -0.009766 -0.009767 0.587510 2.103114 -8.931546 1.992188 -2.001953 0.000341 -64.273125 11.185427 -5.128180 -12.181931 -0.869994 8.314117 -12.013169 21.031933 -96.312637 -2.001953 1.992188 0.000000 59.694958 3.461555 12.283394 60.988773 0.516342 8.654014 23.903439 -11.338844 -19.952944 -50.973637 11.453672 16.412741 35.411182 -0.974526 -2.754532 9.980258 -4.342604 1.471837 -2.266332 -15.872786 -14.251879 39.005989 0.748420 2.901442 -31.731102 -38.676914 15.115449 
1.934172 35.123478 1.934172 7.717034 3.345920 -5.135289 3.793338 0.107281 -2.929682 20.264528 -3.586598 6.976065 -8.544920 -0.009766 -0.009767 -0.416352 2.415033 -4.310215 1.992188 -2.001953 0.000341 -65.527893 5.761695 -3.237769 -20.611189 -0.795662 8.357347 -20.756727 28.082184 -109.344040 -2.001953 1.992188 0.000000 59.373352 2.507714 14.717263 62.658680 0.501918 8.677687 22.108932 -11.880361 -17.153555 -51.272064 11.919743 16.153229 36.064709 -0.949559 -2.809136 9.202867 -2.226747 0.661933 -3.779206 -17.490557 -13.193733 39.376907 0.745736 2.918854 -30.868206 -36.861580 16.164371 
2.394873 35.157032 2.394873 8.049800 3.987876 -7.635310 3.743979 0.107253 -3.212885 21.245970 -2.609590 4.369591 -8.544920 -0.009766 -0.009767 -1.382092 2.812463 0.293574 1.992188 -2.001953 0.000341 -66.939232 0.379222 -1.239553 -29.034090 -0.729047 8.412313 -31.701845 32.994251 -124.317230 -2.001953 1.992188 0.000000 59.019318 1.570518 17.156851 64.318398 0.504950 8.700768 20.286425 -12.339128 -14.338094 -51.578571 12.381116 15.913943 36.718880 -0.926058 -2.844600 8.465501 -0.110564 -0.124265 -5.321851 -19.073807 -12.095252 39.747974 0.732442 2.932691 -30.055807 -35.055180 17.155090 
2.775111 35.201752 2.775111 8.261502 4.541101 -9.894636 3.703851 0.116973 -3.466790 22.160252 -1.649422 1.963483 -8.544920 -0.009766 -0.009767 -2.147829 3.210995 4.881241 1.992188 -2.001953 0.000341 -63.992439 -7.029935 -2.452847 -45.863216 -0.608817 8.533028 -34.721764 30.337225 -131.432816 -2.001953 1.992188 0.000000 58.436680 0.722909 19.392263 65.656021 0.500332 8.716237 18.479588 -12.750872 -11.822727 -51.716087 12.781592 15.667610 37.177811 -0.900686 -2.869467 7.920959 1.746428 -0.815994 -6.815912 -20.406406 -11.133761 39.991608 0.706569 2.955280 -29.265852 -33.357513 17.986679 
3.155288 35.246464 3.155288 8.463688 5.098497 -12.157934 3.663637 0.126686 -3.720694 23.042126 -0.654278 -0.439536 -8.544920 -0.009766 -0.009767 -2.884792 3.670212 9.463198 1.992188 -2.001953 0.000341 -60.801483 -14.390144 -4.083707 -62.662197 -0.539322 8.690760 -37.253471 27.386976 -138.182983 -2.001953 1.992188 0.000000 57.829525 -0.109800 21.631603 66.993782 0.484709 8.731144 16.641436 -13.065552 -9.307383 -51.872139 13.192056 15.395123 37.636837 -0.887301 -2.888300 7.419478 3.598440 -1.484952 -8.348418 -21.701740 -10.101101 40.246246 0.693411 2.943876 -28.525379 -31.615536 18.817087 
3.441579 35.280018 3.441579 8.541433 5.526429 -13.952539 3.614355 0.126655 -3.925772 23.787193 0.263415 -2.529315 -8.544920 -0.009766 -0.009767 -3.377549 4.069187 13.786031 1.992188 -2.001953 0.000341 -50.046284 -40.745510 -10.321689 -41.656021 -0.633747 8.500874 -33.472973 20.067732 -138.560440 -2.001953 1.992188 0.000000 57.108963 -0.783115 23.561430 67.735519 0.497168 8.740319 14.897302 -13.342442 -7.319004 -51.862404 13.504474 15.191816 37.861340 -0.867732 -2.903003 7.077082 4.994937 -2.022668 -9.531144 -22.625767 -9.373839 40.324448 0.683652 2.944347 -27.888163 -30.148140 19.414877 
